# Blender 4.0.1
# www.blender.org
mtllib test.mtl
o test
v 0.348913 -0.150000 -0.050000
v 0.651087 -0.150000 -0.050000
v 0.348913 -0.050000 -0.050000
v 0.651087 -0.050000 -0.050000
v 0.348913 -0.150000 -0.150000
v 0.651087 -0.150000 -0.150000
v 0.348913 -0.050000 -0.150000
v 0.651087 -0.050000 -0.150000
vn -0.0000 -0.0000 1.0000
vn -0.0000 -0.0000 -1.0000
vn -0.0000 1.0000 -0.0000
vn -1.0000 -0.0000 -0.0000
vn 1.0000 -0.0000 -0.0000
vt 0.000000 0.000000
vt 1.000000 0.000000
vt 0.000000 1.000000
vt 1.000000 1.000000
s 0
usemtl mat_xtitle
f 1/1/1 2/2/1 3/3/1
f 2/2/2 3/3/2 4/4/2
f 1/3/3 2/4/3 5/1/3
f 5/1/3 2/4/3 6/2/3
f 8/4/3 7/3/3 4/2/3
f 4/2/3 7/3/3 3/1/3
f 5/3/1 6/4/1 7/1/1
f 7/1/1 6/4/1 8/2/1
f 2/1/4 4/1/4 6/1/4
f 6/1/4 4/1/4 8/1/4
f 1/1/5 5/1/5 3/1/5
f 3/1/5 5/1/5 7/1/5
